<?xml version="1.0" encoding="UTF-8"?>
<svg height="600" width="800" xmlns="http://www.w3.org/2000/svg" xmlns:xlink="http://www.w3.org/1999/xlink">
    <g id="Notes" font-family="'LucidaGrande', 'Lucida Grande', sans-serif" font-size="13">
        <rect fill="white" height="600.0" width="800.0" x="0.0" y="0.0" />
        <g font-size="13">
            <text x="18.0" y="176.0">Small</text>
            <text x="18.0" y="376.0">Medium</text>
            <text x="18.0" y="576.0">Large</text>
        </g>
        <g font-size="9">
            <text x="250.0" y="30.0">Ultralight</text>
            <text x="450.0" y="30.0">Regular</text>
            <text x="650.0" y="30.0">Black</text>
            <text id="template-version" fill="#505050" text-anchor="end" x="785.0" y="575.0">Template v.3.0</text>
            <a href="https://wangchujiang.com/#/app">
                <text fill="#505050" text-anchor="end" x="785.0" y="590.0">https://wangchujiang.com/#/app</text>
            </a>
        </g>
    </g>
    <g id="Guides" stroke="rgb(39, 170, 225)" stroke-width="0.5">
        <path id="Capline-S" d="M18,76 l800,0" />
        <path id="H-reference" d="M85,145.755 L87.685,145.755 L113.369,79.287 L114.052,79.287 L114.052,76 L112.148,76 L85,145.755 Z M95.693,121.536 L130.996,121.536 L130.263,119.313 L96.474,119.313 L95.693,121.536 Z M139.15,145.755 L141.787,145.755 L114.638,76 L113.466,76 L113.466,79.287 L139.15,145.755 Z" stroke="none" />
        <path id="Baseline-S" d="M18,146 l800,0" />
        <path id="left-margin-Ultralight-S" d="M211,56 l0,110" />
        <path id="right-margin-Ultralight-S" d="M319,56 l0,110" />
        <path id="left-margin-Regular-S" d="M411,56 l0,110" />
        <path id="right-margin-Regular-S" d="M519,56 l0,110" />
        <path id="left-margin-Black-S" d="M611,56 l0,110" />
        <path id="right-margin-Black-S" d="M719,56 l0,110" />
        <path id="Capline-M" d="M18,276 l800,0" />
        <path id="Baseline-M" d="M18,346 l800,0" />
        <path id="Capline-L" d="M18,476 l800,0" />
        <path id="Baseline-L" d="M18,546 l800,0" />
    </g>
    <g id="Symbols">
        <g id="Ultralight-S">
            <path d="M221,135 L221,87 C221,85.939 221.421,84.922 222.172,84.172 C222.922,83.421 223.939,83 225,83 C226.061,83 227.078,83.421 227.828,84.172 C228.579,84.922 229,85.939 229,87 L229,107 L253,107 L253,87 C253,85.939 253.421,84.922 254.172,84.172 C254.922,83.421 255.939,83 257,83 C258.061,83 259.078,83.421 259.828,84.172 C260.579,84.922 261,85.939 261,87 L261,135 C261,136.061 260.579,137.078 259.828,137.828 C259.078,138.578 258.061,139 257,139 C255.939,139 254.922,138.578 254.172,137.828 C253.421,137.078 253,136.061 253,135 L253,115 L229,115 L229,135 C229,136.061 228.579,137.078 227.828,137.828 C227.078,138.578 226.061,139 225,139 C223.939,139 222.922,138.578 222.172,137.828 C221.421,137.078 221,136.061 221,135 Z M309,103 C309,97.696 306.893,92.609 303.142,88.858 C299.392,85.107 294.304,83 289,83 C283.696,83 278.608,85.107 274.858,88.858 C271.107,92.609 269,97.696 269,103 C269,104.061 269.422,105.078 270.172,105.828 C270.922,106.579 271.939,107 273,107 C274.061,107 275.078,106.579 275.828,105.828 C276.578,105.078 277,104.061 277,103 C277,100.955 277.524,98.944 278.52,97.157 C279.516,95.371 280.952,93.869 282.692,92.794 C284.432,91.719 286.418,91.106 288.461,91.015 C290.504,90.923 292.536,91.354 294.366,92.269 C296.195,93.183 297.76,94.55 298.913,96.24 C300.066,97.929 300.767,99.885 300.951,101.922 C301.135,103.959 300.796,106.009 299.965,107.878 C299.134,109.747 297.839,111.372 296.203,112.6 L270.603,131.8 C269.932,132.304 269.436,133.006 269.185,133.806 C268.935,134.608 268.943,135.467 269.208,136.263 C269.473,137.06 269.982,137.752 270.662,138.244 C271.343,138.735 272.161,138.999 273,139 L305,139 C306.061,139 307.078,138.578 307.828,137.828 C308.578,137.078 309,136.061 309,135 C309,133.939 308.578,132.922 307.828,132.172 C307.078,131.422 306.061,131 305,131 L285,131 L301.004,119 C303.481,117.131 305.492,114.714 306.88,111.938 C308.267,109.162 308.992,106.103 309,103 Z" />
        </g>
        <g id="Regular-S">
            <path d="M421,135 L421,87 C421,85.939 421.421,84.922 422.172,84.172 C422.922,83.421 423.939,83 425,83 C426.061,83 427.078,83.421 427.828,84.172 C428.579,84.922 429,85.939 429,87 L429,107 L453,107 L453,87 C453,85.939 453.421,84.922 454.172,84.172 C454.922,83.421 455.939,83 457,83 C458.061,83 459.078,83.421 459.828,84.172 C460.579,84.922 461,85.939 461,87 L461,135 C461,136.061 460.579,137.078 459.828,137.828 C459.078,138.578 458.061,139 457,139 C455.939,139 454.922,138.578 454.172,137.828 C453.421,137.078 453,136.061 453,135 L453,115 L429,115 L429,135 C429,136.061 428.579,137.078 427.828,137.828 C427.078,138.578 426.061,139 425,139 C423.939,139 422.922,138.578 422.172,137.828 C421.421,137.078 421,136.061 421,135 Z M509,103 C509,97.696 506.893,92.609 503.142,88.858 C499.392,85.107 494.304,83 489,83 C483.696,83 478.608,85.107 474.858,88.858 C471.107,92.609 469,97.696 469,103 C469,104.061 469.422,105.078 470.172,105.828 C470.922,106.579 471.939,107 473,107 C474.061,107 475.078,106.579 475.828,105.828 C476.578,105.078 477,104.061 477,103 C477,100.955 477.524,98.944 478.52,97.157 C479.516,95.371 480.952,93.869 482.692,92.794 C484.432,91.719 486.418,91.106 488.461,91.015 C490.504,90.923 492.536,91.354 494.366,92.269 C496.195,93.183 497.76,94.55 498.913,96.24 C500.066,97.929 500.767,99.885 500.951,101.922 C501.135,103.959 500.796,106.009 499.965,107.878 C499.134,109.747 497.839,111.372 496.203,112.6 L470.603,131.8 C469.932,132.304 469.436,133.006 469.185,133.806 C468.935,134.608 468.943,135.467 469.208,136.263 C469.473,137.06 469.982,137.752 470.662,138.244 C471.343,138.735 472.161,138.999 473,139 L505,139 C506.061,139 507.078,138.578 507.828,137.828 C508.578,137.078 509,136.061 509,135 C509,133.939 508.578,132.922 507.828,132.172 C507.078,131.422 506.061,131 505,131 L485,131 L501.004,119 C503.481,117.131 505.492,114.714 506.88,111.938 C508.267,109.162 508.992,106.103 509,103 Z" />
        </g>
        <g id="Black-S">
            <path d="M621,135 L621,87 C621,85.939 621.421,84.922 622.172,84.172 C622.922,83.421 623.939,83 625,83 C626.061,83 627.078,83.421 627.828,84.172 C628.579,84.922 629,85.939 629,87 L629,107 L653,107 L653,87 C653,85.939 653.421,84.922 654.172,84.172 C654.922,83.421 655.939,83 657,83 C658.061,83 659.078,83.421 659.828,84.172 C660.579,84.922 661,85.939 661,87 L661,135 C661,136.061 660.579,137.078 659.828,137.828 C659.078,138.578 658.061,139 657,139 C655.939,139 654.922,138.578 654.172,137.828 C653.421,137.078 653,136.061 653,135 L653,115 L629,115 L629,135 C629,136.061 628.579,137.078 627.828,137.828 C627.078,138.578 626.061,139 625,139 C623.939,139 622.922,138.578 622.172,137.828 C621.421,137.078 621,136.061 621,135 Z M709,103 C709,97.696 706.893,92.609 703.142,88.858 C699.392,85.107 694.304,83 689,83 C683.696,83 678.608,85.107 674.858,88.858 C671.107,92.609 669,97.696 669,103 C669,104.061 669.422,105.078 670.172,105.828 C670.922,106.579 671.939,107 673,107 C674.061,107 675.078,106.579 675.828,105.828 C676.578,105.078 677,104.061 677,103 C677,100.955 677.524,98.944 678.52,97.157 C679.516,95.371 680.952,93.869 682.692,92.794 C684.432,91.719 686.418,91.106 688.461,91.015 C690.504,90.923 692.536,91.354 694.366,92.269 C696.195,93.183 697.76,94.55 698.913,96.24 C700.066,97.929 700.767,99.885 700.951,101.922 C701.135,103.959 700.796,106.009 699.965,107.878 C699.134,109.747 697.839,111.372 696.203,112.6 L670.603,131.8 C669.932,132.304 669.436,133.006 669.185,133.806 C668.935,134.608 668.943,135.467 669.208,136.263 C669.473,137.06 669.982,137.752 670.662,138.244 C671.343,138.735 672.161,138.999 673,139 L705,139 C706.061,139 707.078,138.578 707.828,137.828 C708.578,137.078 709,136.061 709,135 C709,133.939 708.578,132.922 707.828,132.172 C707.078,131.422 706.061,131 705,131 L685,131 L701.004,119 C703.481,117.131 705.492,114.714 706.88,111.938 C708.267,109.162 708.992,106.103 709,103 Z" />
        </g>
    </g>
</svg>
