<?xml version="1.0" encoding="UTF-8"?>
<svg height="600" width="800" xmlns="http://www.w3.org/2000/svg" xmlns:xlink="http://www.w3.org/1999/xlink">
    <g id="Notes" font-family="'LucidaGrande', 'Lucida Grande', sans-serif" font-size="13">
        <rect fill="white" height="600.0" width="800.0" x="0.0" y="0.0" />
        <g font-size="13">
            <text x="18.0" y="176.0">Small</text>
            <text x="18.0" y="376.0">Medium</text>
            <text x="18.0" y="576.0">Large</text>
        </g>
        <g font-size="9">
            <text x="250.0" y="30.0">Ultralight</text>
            <text x="450.0" y="30.0">Regular</text>
            <text x="650.0" y="30.0">Black</text>
            <text id="template-version" fill="#505050" text-anchor="end" x="785.0" y="575.0">Template v.3.0</text>
            <a href="https://wangchujiang.com/#/app">
                <text fill="#505050" text-anchor="end" x="785.0" y="590.0">https://wangchujiang.com/#/app</text>
            </a>
        </g>
    </g>
    <g id="Guides" stroke="rgb(39, 170, 225)" stroke-width="0.5">
        <path id="Capline-S" d="M18,76 l800,0" />
        <path id="H-reference" d="M85,145.755 L87.685,145.755 L113.369,79.287 L114.052,79.287 L114.052,76 L112.148,76 L85,145.755 Z M95.693,121.536 L130.996,121.536 L130.263,119.313 L96.474,119.313 L95.693,121.536 Z M139.15,145.755 L141.787,145.755 L114.638,76 L113.466,76 L113.466,79.287 L139.15,145.755 Z" stroke="none" />
        <path id="Baseline-S" d="M18,146 l800,0" />
        <path id="left-margin-Ultralight-S" d="M211,56 l0,110" />
        <path id="right-margin-Ultralight-S" d="M319,56 l0,110" />
        <path id="left-margin-Regular-S" d="M411,56 l0,110" />
        <path id="right-margin-Regular-S" d="M519,56 l0,110" />
        <path id="left-margin-Black-S" d="M611,56 l0,110" />
        <path id="right-margin-Black-S" d="M719,56 l0,110" />
        <path id="Capline-M" d="M18,276 l800,0" />
        <path id="Baseline-M" d="M18,346 l800,0" />
        <path id="Capline-L" d="M18,476 l800,0" />
        <path id="Baseline-L" d="M18,546 l800,0" />
    </g>
    <g id="Symbols">
        <g id="Ultralight-S">
            <path d="M265,84.6 L265,137.4 C265,138.567 264.536,139.686 263.711,140.511 C262.886,141.336 261.767,141.8 260.6,141.8 C259.433,141.8 258.314,141.336 257.489,140.511 C256.664,139.686 256.2,138.567 256.2,137.4 L256.2,115.4 L229.8,115.4 L229.8,137.4 C229.8,138.567 229.336,139.686 228.511,140.511 C227.686,141.336 226.567,141.8 225.4,141.8 C224.233,141.8 223.114,141.336 222.289,140.511 C221.464,139.686 221,138.567 221,137.4 L221,84.6 C221,83.433 221.464,82.314 222.289,81.489 C223.114,80.664 224.233,80.2 225.4,80.2 C226.567,80.2 227.686,80.664 228.511,81.489 C229.336,82.314 229.8,83.433 229.8,84.6 L229.8,106.6 L256.2,106.6 L256.2,84.6 C256.2,83.433 256.664,82.314 257.489,81.489 C258.314,80.664 259.433,80.2 260.6,80.2 C261.767,80.2 262.886,80.664 263.711,81.489 C264.536,82.314 265,83.433 265,84.6 Z M287,133 C285.833,133 284.714,133.464 283.889,134.289 C283.064,135.114 282.6,136.233 282.6,137.4 C282.6,138.567 283.064,139.686 283.889,140.511 C284.714,141.336 285.833,141.8 287,141.8 L304.6,141.8 C305.767,141.8 306.886,141.336 307.711,140.511 C308.536,139.686 309,138.567 309,137.4 C309,136.233 308.536,135.114 307.711,134.289 C306.886,133.464 305.767,133 304.6,133 L300.2,133 L300.2,84.6 C300.2,83.433 299.736,82.314 298.911,81.489 C298.086,80.664 296.967,80.2 295.8,80.2 L287,80.2 C285.833,80.2 284.714,80.664 283.889,81.489 C283.064,82.314 282.6,83.433 282.6,84.6 C282.6,85.767 283.064,86.886 283.889,87.711 C284.714,88.536 285.833,89 287,89 L291.4,89 L291.4,133 L287,133 Z" />
        </g>
        <g id="Regular-S">
            <path d="M465,84.6 L465,137.4 C465,138.567 464.536,139.686 463.711,140.511 C462.886,141.336 461.767,141.8 460.6,141.8 C459.433,141.8 458.314,141.336 457.489,140.511 C456.664,139.686 456.2,138.567 456.2,137.4 L456.2,115.4 L429.8,115.4 L429.8,137.4 C429.8,138.567 429.336,139.686 428.511,140.511 C427.686,141.336 426.567,141.8 425.4,141.8 C424.233,141.8 423.114,141.336 422.289,140.511 C421.464,139.686 421,138.567 421,137.4 L421,84.6 C421,83.433 421.464,82.314 422.289,81.489 C423.114,80.664 424.233,80.2 425.4,80.2 C426.567,80.2 427.686,80.664 428.511,81.489 C429.336,82.314 429.8,83.433 429.8,84.6 L429.8,106.6 L456.2,106.6 L456.2,84.6 C456.2,83.433 456.664,82.314 457.489,81.489 C458.314,80.664 459.433,80.2 460.6,80.2 C461.767,80.2 462.886,80.664 463.711,81.489 C464.536,82.314 465,83.433 465,84.6 Z M487,133 C485.833,133 484.714,133.464 483.889,134.289 C483.064,135.114 482.6,136.233 482.6,137.4 C482.6,138.567 483.064,139.686 483.889,140.511 C484.714,141.336 485.833,141.8 487,141.8 L504.6,141.8 C505.767,141.8 506.886,141.336 507.711,140.511 C508.536,139.686 509,138.567 509,137.4 C509,136.233 508.536,135.114 507.711,134.289 C506.886,133.464 505.767,133 504.6,133 L500.2,133 L500.2,84.6 C500.2,83.433 499.736,82.314 498.911,81.489 C498.086,80.664 496.967,80.2 495.8,80.2 L487,80.2 C485.833,80.2 484.714,80.664 483.889,81.489 C483.064,82.314 482.6,83.433 482.6,84.6 C482.6,85.767 483.064,86.886 483.889,87.711 C484.714,88.536 485.833,89 487,89 L491.4,89 L491.4,133 L487,133 Z" />
        </g>
        <g id="Black-S">
            <path d="M665,84.6 L665,137.4 C665,138.567 664.536,139.686 663.711,140.511 C662.886,141.336 661.767,141.8 660.6,141.8 C659.433,141.8 658.314,141.336 657.489,140.511 C656.664,139.686 656.2,138.567 656.2,137.4 L656.2,115.4 L629.8,115.4 L629.8,137.4 C629.8,138.567 629.336,139.686 628.511,140.511 C627.686,141.336 626.567,141.8 625.4,141.8 C624.233,141.8 623.114,141.336 622.289,140.511 C621.464,139.686 621,138.567 621,137.4 L621,84.6 C621,83.433 621.464,82.314 622.289,81.489 C623.114,80.664 624.233,80.2 625.4,80.2 C626.567,80.2 627.686,80.664 628.511,81.489 C629.336,82.314 629.8,83.433 629.8,84.6 L629.8,106.6 L656.2,106.6 L656.2,84.6 C656.2,83.433 656.664,82.314 657.489,81.489 C658.314,80.664 659.433,80.2 660.6,80.2 C661.767,80.2 662.886,80.664 663.711,81.489 C664.536,82.314 665,83.433 665,84.6 Z M687,133 C685.833,133 684.714,133.464 683.889,134.289 C683.064,135.114 682.6,136.233 682.6,137.4 C682.6,138.567 683.064,139.686 683.889,140.511 C684.714,141.336 685.833,141.8 687,141.8 L704.6,141.8 C705.767,141.8 706.886,141.336 707.711,140.511 C708.536,139.686 709,138.567 709,137.4 C709,136.233 708.536,135.114 707.711,134.289 C706.886,133.464 705.767,133 704.6,133 L700.2,133 L700.2,84.6 C700.2,83.433 699.736,82.314 698.911,81.489 C698.086,80.664 696.967,80.2 695.8,80.2 L687,80.2 C685.833,80.2 684.714,80.664 683.889,81.489 C683.064,82.314 682.6,83.433 682.6,84.6 C682.6,85.767 683.064,86.886 683.889,87.711 C684.714,88.536 685.833,89 687,89 L691.4,89 L691.4,133 L687,133 Z" />
        </g>
    </g>
</svg>
