<?xml version="1.0" encoding="UTF-8"?>
<svg height="600" width="800" xmlns="http://www.w3.org/2000/svg" xmlns:xlink="http://www.w3.org/1999/xlink">
    <g id="Notes" font-family="'LucidaGrande', 'Lucida Grande', sans-serif" font-size="13">
        <rect fill="white" height="600.0" width="800.0" x="0.0" y="0.0" />
        <g font-size="13">
            <text x="18.0" y="176.0">Small</text>
            <text x="18.0" y="376.0">Medium</text>
            <text x="18.0" y="576.0">Large</text>
        </g>
        <g font-size="9">
            <text x="250.0" y="30.0">Ultralight</text>
            <text x="450.0" y="30.0">Regular</text>
            <text x="650.0" y="30.0">Black</text>
            <text id="template-version" fill="#505050" text-anchor="end" x="785.0" y="575.0">Template v.3.0</text>
            <a href="https://wangchujiang.com/#/app">
                <text fill="#505050" text-anchor="end" x="785.0" y="590.0">https://wangchujiang.com/#/app</text>
            </a>
        </g>
    </g>
    <g id="Guides" stroke="rgb(39, 170, 225)" stroke-width="0.5">
        <path id="Capline-S" d="M18,76 l800,0" />
        <path id="H-reference" d="M85,145.755 L87.685,145.755 L113.369,79.287 L114.052,79.287 L114.052,76 L112.148,76 L85,145.755 Z M95.693,121.536 L130.996,121.536 L130.263,119.313 L96.474,119.313 L95.693,121.536 Z M139.15,145.755 L141.787,145.755 L114.638,76 L113.466,76 L113.466,79.287 L139.15,145.755 Z" stroke="none" />
        <path id="Baseline-S" d="M18,146 l800,0" />
        <path id="left-margin-Ultralight-S" d="M211,56 l0,110" />
        <path id="right-margin-Ultralight-S" d="M319,56 l0,110" />
        <path id="left-margin-Regular-S" d="M411,56 l0,110" />
        <path id="right-margin-Regular-S" d="M519,56 l0,110" />
        <path id="left-margin-Black-S" d="M611,56 l0,110" />
        <path id="right-margin-Black-S" d="M719,56 l0,110" />
        <path id="Capline-M" d="M18,276 l800,0" />
        <path id="Baseline-M" d="M18,346 l800,0" />
        <path id="Capline-L" d="M18,476 l800,0" />
        <path id="Baseline-L" d="M18,546 l800,0" />
    </g>
    <g id="Symbols">
        <g id="Ultralight-S">
            <path d="M221,134.998 L221,87.002 C221,85.941 221.421,84.923 222.171,84.173 C222.922,83.423 223.939,83.002 225,83.002 C226.061,83.002 227.078,83.423 227.828,84.173 C228.578,84.923 228.999,85.941 228.999,87.002 L228.999,107 L252.998,107 L252.998,87.002 C252.998,85.941 253.419,84.923 254.169,84.173 C254.92,83.423 255.937,83.002 256.998,83.002 C258.059,83.002 259.076,83.423 259.826,84.173 C260.576,84.923 260.997,85.941 260.997,87.002 L260.997,134.998 C260.997,136.059 260.576,137.077 259.826,137.827 C259.076,138.577 258.059,138.998 256.998,138.998 C255.937,138.998 254.92,138.577 254.169,137.827 C253.419,137.077 252.998,136.059 252.998,134.998 L252.998,115 L228.999,115 L228.999,134.998 C228.999,136.059 228.578,137.077 227.828,137.827 C227.078,138.577 226.061,138.998 225,138.998 C223.939,138.998 222.922,138.577 222.171,137.827 C221.421,137.077 221,136.059 221,134.998 Z M308.974,98.145 C308.663,93.968 306.763,90.07 303.664,87.252 C300.565,84.435 296.503,82.914 292.315,83.002 L284.996,83.002 C280.754,83.006 276.687,84.693 273.687,87.692 C270.688,90.692 269.001,94.759 268.997,99.001 C268.997,100.062 269.419,101.079 270.168,101.829 C270.918,102.579 271.936,103.001 272.997,103.001 C274.057,103.001 275.075,102.579 275.825,101.829 C276.575,101.079 276.996,100.062 276.996,99.001 C276.999,96.88 277.843,94.847 279.343,93.347 C280.842,91.848 282.875,91.004 284.996,91.001 L292.315,91.001 C294.447,90.94 296.522,91.685 298.129,93.086 C299.735,94.488 300.755,96.443 300.983,98.563 C301.042,99.649 300.879,100.735 300.505,101.756 C300.13,102.776 299.551,103.71 298.804,104.5 C298.056,105.289 297.156,105.918 296.157,106.348 C295.159,106.778 294.083,107 292.995,107 L288.996,107 C287.935,107 286.917,107.422 286.167,108.172 C285.418,108.922 284.996,109.939 284.996,111 C284.996,112.061 285.418,113.078 286.167,113.828 C286.917,114.578 287.935,115 288.996,115 L292.995,115 C294.083,115 295.158,115.221 296.157,115.651 C297.155,116.08 298.056,116.709 298.803,117.498 C299.551,118.287 300.13,119.221 300.505,120.241 C300.879,121.261 301.042,122.347 300.983,123.433 C300.756,125.553 299.737,127.51 298.13,128.912 C296.524,130.315 294.447,131.06 292.315,130.999 L284.996,130.999 C282.875,130.996 280.842,130.152 279.343,128.652 C277.843,127.153 276.999,125.12 276.996,122.999 C276.996,121.938 276.575,120.921 275.825,120.171 C275.075,119.421 274.057,119 272.997,119 C271.936,119 270.918,119.421 270.168,120.171 C269.419,120.921 268.997,121.938 268.997,122.999 C269.001,127.241 270.688,131.308 273.687,134.308 C276.687,137.307 280.754,138.994 284.996,138.998 L292.315,138.998 C296.504,139.087 300.566,137.565 303.666,134.746 C306.765,131.928 308.666,128.029 308.975,123.851 C309.097,121.679 308.772,119.505 308.019,117.463 C307.267,115.422 306.103,113.557 304.6,111.984 C304.25,111.616 303.833,111.331 303.452,111 C303.833,110.669 304.252,110.384 304.6,110.016 C306.103,108.442 307.267,106.576 308.019,104.535 C308.772,102.493 309.096,100.318 308.974,98.145 Z" />
        </g>
        <g id="Regular-S">
            <path d="M421,134.998 L421,87.002 C421,85.941 421.421,84.923 422.172,84.173 C422.922,83.423 423.939,83.002 425,83.002 C426.061,83.002 427.078,83.423 427.828,84.173 C428.578,84.923 428.999,85.941 428.999,87.002 L428.999,107 L452.998,107 L452.998,87.002 C452.998,85.941 453.419,84.923 454.169,84.173 C454.92,83.423 455.937,83.002 456.998,83.002 C458.059,83.002 459.076,83.423 459.826,84.173 C460.576,84.923 460.997,85.941 460.997,87.002 L460.997,134.998 C460.997,136.059 460.576,137.077 459.826,137.827 C459.076,138.577 458.059,138.998 456.998,138.998 C455.937,138.998 454.92,138.577 454.169,137.827 C453.419,137.077 452.998,136.059 452.998,134.998 L452.998,115 L428.999,115 L428.999,134.998 C428.999,136.059 428.578,137.077 427.828,137.827 C427.078,138.577 426.061,138.998 425,138.998 C423.939,138.998 422.922,138.577 422.172,137.827 C421.421,137.077 421,136.059 421,134.998 Z M508.974,98.145 C508.663,93.968 506.763,90.07 503.664,87.252 C500.565,84.435 496.503,82.914 492.315,83.002 L484.996,83.002 C480.754,83.006 476.687,84.693 473.687,87.692 C470.688,90.692 469.001,94.759 468.997,99.001 C468.997,100.062 469.419,101.079 470.168,101.829 C470.918,102.579 471.936,103.001 472.997,103.001 C474.057,103.001 475.075,102.579 475.825,101.829 C476.575,101.079 476.996,100.062 476.996,99.001 C476.999,96.88 477.843,94.847 479.343,93.347 C480.842,91.848 482.875,91.004 484.996,91.001 L492.315,91.001 C494.447,90.94 496.522,91.685 498.129,93.086 C499.735,94.488 500.755,96.443 500.983,98.563 C501.042,99.649 500.879,100.735 500.505,101.756 C500.13,102.776 499.551,103.71 498.804,104.5 C498.056,105.289 497.156,105.918 496.157,106.348 C495.159,106.778 494.083,107 492.995,107 L488.996,107 C487.935,107 486.917,107.422 486.167,108.172 C485.418,108.922 484.996,109.939 484.996,111 C484.996,112.061 485.418,113.078 486.167,113.828 C486.917,114.578 487.935,115 488.996,115 L492.995,115 C494.083,115 495.158,115.221 496.157,115.651 C497.155,116.08 498.056,116.709 498.803,117.498 C499.551,118.287 500.13,119.221 500.505,120.241 C500.879,121.261 501.042,122.347 500.983,123.433 C500.756,125.553 499.737,127.51 498.13,128.912 C496.524,130.315 494.447,131.06 492.315,130.999 L484.996,130.999 C482.875,130.996 480.842,130.152 479.343,128.652 C477.843,127.153 476.999,125.12 476.996,122.999 C476.996,121.938 476.575,120.921 475.825,120.171 C475.075,119.421 474.057,119 472.997,119 C471.936,119 470.918,119.421 470.168,120.171 C469.419,120.921 468.997,121.938 468.997,122.999 C469.001,127.241 470.688,131.308 473.687,134.308 C476.687,137.307 480.754,138.994 484.996,138.998 L492.315,138.998 C496.504,139.087 500.566,137.565 503.666,134.746 C506.765,131.928 508.666,128.029 508.975,123.851 C509.097,121.679 508.772,119.505 508.019,117.463 C507.267,115.422 506.103,113.557 504.6,111.984 C504.25,111.616 503.833,111.331 503.452,111 C503.833,110.669 504.252,110.384 504.6,110.016 C506.103,108.442 507.267,106.576 508.019,104.535 C508.772,102.493 509.096,100.318 508.974,98.145 Z" />
        </g>
        <g id="Black-S">
            <path d="M621,134.998 L621,87.002 C621,85.941 621.421,84.923 622.172,84.173 C622.922,83.423 623.939,83.002 625,83.002 C626.061,83.002 627.078,83.423 627.828,84.173 C628.578,84.923 629,85.941 629,87.002 L629,107 L652.998,107 L652.998,87.002 C652.998,85.941 653.419,84.923 654.169,84.173 C654.92,83.423 655.937,83.002 656.998,83.002 C658.059,83.002 659.076,83.423 659.826,84.173 C660.576,84.923 660.997,85.941 660.997,87.002 L660.997,134.998 C660.997,136.059 660.576,137.077 659.826,137.827 C659.076,138.577 658.059,138.998 656.998,138.998 C655.937,138.998 654.92,138.577 654.169,137.827 C653.419,137.077 652.998,136.059 652.998,134.998 L652.998,115 L629,115 L629,134.998 C629,136.059 628.578,137.077 627.828,137.827 C627.078,138.577 626.061,138.998 625,138.998 C623.939,138.998 622.922,138.577 622.172,137.827 C621.421,137.077 621,136.059 621,134.998 Z M708.974,98.145 C708.663,93.968 706.763,90.07 703.664,87.252 C700.565,84.435 696.503,82.914 692.315,83.002 L684.996,83.002 C680.754,83.006 676.687,84.693 673.688,87.692 C670.688,90.692 669.001,94.759 668.997,99.001 C668.997,100.062 669.419,101.079 670.169,101.829 C670.918,102.579 671.936,103.001 672.997,103.001 C674.057,103.001 675.075,102.579 675.825,101.829 C676.575,101.079 676.996,100.062 676.996,99.001 C676.999,96.88 677.843,94.847 679.343,93.347 C680.842,91.848 682.875,91.004 684.996,91.001 L692.315,91.001 C694.447,90.94 696.522,91.685 698.129,93.086 C699.735,94.488 700.755,96.443 700.983,98.563 C701.042,99.649 700.879,100.735 700.505,101.756 C700.13,102.776 699.551,103.71 698.804,104.5 C698.056,105.289 697.156,105.918 696.157,106.348 C695.159,106.778 694.083,107 692.995,107 L688.996,107 C687.935,107 686.917,107.422 686.167,108.172 C685.418,108.922 684.996,109.939 684.996,111 C684.996,112.061 685.418,113.078 686.167,113.828 C686.917,114.578 687.935,115 688.996,115 L692.995,115 C694.083,115 695.158,115.221 696.157,115.651 C697.155,116.08 698.056,116.709 698.803,117.498 C699.551,118.287 700.13,119.221 700.505,120.241 C700.879,121.261 701.042,122.347 700.983,123.433 C700.756,125.553 699.737,127.51 698.13,128.912 C696.524,130.315 694.447,131.06 692.315,130.999 L684.996,130.999 C682.875,130.996 680.842,130.152 679.343,128.652 C677.843,127.153 676.999,125.12 676.996,122.999 C676.996,121.938 676.575,120.921 675.825,120.171 C675.075,119.421 674.057,119 672.997,119 C671.936,119 670.918,119.421 670.169,120.171 C669.419,120.921 668.997,121.938 668.997,122.999 C669.001,127.241 670.688,131.308 673.688,134.308 C676.687,137.307 680.754,138.994 684.996,138.998 L692.315,138.998 C696.504,139.087 700.566,137.565 703.666,134.746 C706.765,131.928 708.666,128.029 708.975,123.851 C709.097,121.679 708.772,119.505 708.019,117.463 C707.267,115.422 706.103,113.557 704.6,111.984 C704.25,111.616 703.833,111.331 703.452,111 C703.833,110.669 704.252,110.384 704.6,110.016 C706.103,108.442 707.267,106.576 708.019,104.535 C708.772,102.493 709.096,100.318 708.974,98.145 Z" />
        </g>
    </g>
</svg>
